<?xml version="1.0" encoding="UTF-8"?>
<svg id="_レイヤー_5" data-name="レイヤー_5" xmlns="http://www.w3.org/2000/svg" viewBox="0 0 541.71 606.78">
  <defs>
    <style>
      .cls-1 {
        stroke: #231815;
      }

      .cls-1, .cls-2 {
        fill: none;
        stroke-linejoin: round;
        stroke-width: 30.26px;
      }

      .cls-2 {
        stroke: #e47272;
      }
    </style>
  </defs>
  <path class="cls-1" d="M511.58,296.87v-82.25l-63.74-4.77c-4.29-16.54-10.84-32.16-19.3-46.53l41.72-48.46-58.16-58.16-48.46,41.72c-14.37-8.46-29.99-15.01-46.53-19.3l-4.77-63.74h-82.25l-4.77,63.74c-16.54,4.29-32.16,10.84-46.53,19.3l-48.46-41.72-58.16,58.16,41.72,48.46c-8.46,14.37-15.01,29.99-19.3,46.53l-63.74,4.77v82.25l63.74,4.77c4.29,16.54,10.84,32.16,19.3,46.53l-41.72,48.46,58.16,58.16,48.46-41.72c14.37,8.46,29.99,15.01,46.53,19.3l4.77,63.74h82.25l4.77-63.74c16.54-4.29,32.16-10.84,46.53-19.3l48.46,41.72,58.16-58.16-41.72-48.46c8.46-14.37,15.01-29.99,19.3-46.53l63.74-4.77Z"/>
  <circle class="cls-2" cx="271.71" cy="256.25" r="72"/>
</svg>