<?xml version="1.0" encoding="UTF-8"?>
<svg id="_レイヤー_2" data-name="レイヤー_2" xmlns="http://www.w3.org/2000/svg" viewBox="0 0 541.71 606.78">
  <defs>
    <style>
      .cls-1 {
        fill: #e47272;
      }

      .cls-2 {
        fill: none;
        stroke: #231815;
        stroke-linecap: round;
        stroke-miterlimit: 10;
        stroke-width: 57.53px;
      }
    </style>
  </defs>
  <path class="cls-2" d="M498.95,259.13v185.88c0,21.25-17.23,38.48-38.48,38.48H82.95c-21.25,0-38.48-17.23-38.48-38.48V67.49c0-21.25,17.23-38.48,38.48-38.48h190.19"/>
  <path class="cls-1" d="M501.72,7.27l19.16,19.16c12.24,12.24,8.65,35.68-8.02,52.34l-208.03,208.03c-17.72,17.72-37.82,32.72-59.16,44.16l-72.02,38.6c-11.93,6.39-21.45-3.13-15.06-15.06l38.6-72.02c11.44-21.34,26.44-41.44,44.16-59.16L449.38,15.29c16.67-16.67,40.11-20.26,52.34-8.02Z"/>
</svg>