<?xml version="1.0" encoding="UTF-8"?>
<svg id="_レイヤー_1" data-name="レイヤー_1" xmlns="http://www.w3.org/2000/svg" viewBox="0 0 191.89 192">
  <defs>
    <style>
      .cls-1 {
        fill: #ccc;
      }
    </style>
  </defs>
  <path class="cls-1" d="M91.73,1.29L5.75,81.4c-3.14,2.92-1.07,8.17,3.22,8.17h18.99c1.37,0,2.49,1.11,2.49,2.49v94.42c0,2.61,2.11,4.72,4.72,4.72h34.78c1.37,0,2.49-1.11,2.49-2.49v-69.88c0-1.37,1.11-2.49,2.49-2.49h40.06c1.37,0,2.49,1.11,2.49,2.49v69.88c0,1.37,1.11,2.49,2.49,2.49h34.78c2.61,0,4.72-2.11,4.72-4.72v-94.42c0-1.37,1.11-2.49,2.49-2.49h18.99c4.29,0,6.35-5.25,3.22-8.17L98.16,1.29c-1.81-1.69-4.62-1.69-6.44,0Z"/>
</svg>