<?xml version="1.0" encoding="UTF-8"?>
<svg id="_レイヤー_1" data-name="レイヤー_1" xmlns="http://www.w3.org/2000/svg" viewBox="0 0 191.89 192">
  <defs>
    <style>
      .cls-1 {
        fill: #ccc;
      }
    </style>
  </defs>
  <path class="cls-1" d="M145.59,104.9l-2.35-4.07c-1.5.86-3.41.35-4.28-1.15s-.35-3.41,1.15-4.28l-3.13-5.42c-1.5.86-3.41.35-4.28-1.15s-.35-3.41,1.15-4.28l-3.13-5.42c-1.5.86-3.41.35-4.28-1.15s-.35-3.41,1.15-4.28l-3.13-5.42c-1.5.86-3.41.35-4.28-1.15s-.35-3.41,1.15-4.28l-3.13-5.42c-1.5.86-3.41.35-4.28-1.15s-.35-3.41,1.15-4.28l-2.35-4.07c-2.25,1.3-5.12.53-6.41-1.72L2.93,105.93c-2.8,1.62-3.76,5.2-2.15,8.01l31.71,54.92c1.62,2.8,5.2,3.76,8.01,2.15l103.37-59.68c-1.3-2.25-.53-5.12,1.72-6.41Z"/>
  <path class="cls-1" d="M115.8,40.77c1.3,2.25.53,5.12-1.72,6.41l2.35,4.07c1.5-.86,3.41-.35,4.28,1.15s.35,3.41-1.15,4.28l3.13,5.42c1.5-.86,3.41-.35,4.28,1.15s.35,3.41-1.15,4.28l3.13,5.42c1.5-.86,3.41-.35,4.28,1.15s.35,3.41-1.15,4.28l3.13,5.42c1.5-.86,3.41-.35,4.28,1.15s.35,3.41-1.15,4.28l3.13,5.42c1.5-.86,3.41-.35,4.28,1.15s.35,3.41-1.15,4.28l2.35,4.07c2.25-1.3,5.12-.53,6.41,1.72l35.59-20.55c2.8-1.62,3.76-5.2,2.15-8.01l-31.71-54.92c-1.62-2.8-5.2-3.76-8.01-2.15l-35.59,20.55Z"/>
</svg>