<?xml version="1.0" encoding="UTF-8"?>
<svg id="_レイヤー_12" data-name="レイヤー_12" xmlns="http://www.w3.org/2000/svg" viewBox="0 0 541.71 607.38">
  <defs>
    <style>
      .cls-1 {
        fill: #fff;
      }

      .cls-2 {
        fill: none;
        stroke: #fff;
        stroke-linecap: round;
        stroke-linejoin: round;
        stroke-width: 31.47px;
      }
    </style>
  </defs>
  <polyline class="cls-2" points="32.01 172.11 32.01 17.13 190.52 17.13"/>
  <polyline class="cls-2" points="353.36 17.13 511.87 17.13 511.87 172.11"/>
  <polyline class="cls-2" points="190.52 496.59 32.01 496.59 32.01 341.61"/>
  <polyline class="cls-2" points="511.87 341.61 511.87 496.59 353.36 496.59"/>
  <g>
    <rect class="cls-1" x="98.1" y="83.16" width="151.61" height="151.58" rx="15.76" ry="15.76"/>
    <path class="cls-1" d="M417.72,111.22v95.46h-95.49v-95.46h95.49M430.02,83.16h-120.08c-8.71,0-15.76,7.06-15.76,15.76v120.05c0,8.71,7.06,15.76,15.76,15.76h120.08c8.71,0,15.76-7.06,15.76-15.76v-120.05c0-8.71-7.06-15.76-15.76-15.76h0Z"/>
    <path class="cls-1" d="M221.65,307.03v95.46h-95.49v-95.46h95.49M233.95,278.97h-120.08c-8.71,0-15.76,7.06-15.76,15.76v120.05c0,8.71,7.06,15.76,15.76,15.76h120.08c8.71,0,15.76-7.06,15.76-15.76v-120.05c0-8.71-7.06-15.76-15.76-15.76h0Z"/>
    <rect class="cls-1" x="294.17" y="278.97" width="151.61" height="151.58" rx="15.76" ry="15.76"/>
  </g>
</svg>