<?xml version="1.0" encoding="UTF-8"?>
<svg id="_レイヤー_6のコピー" data-name="レイヤー_6のコピー" xmlns="http://www.w3.org/2000/svg" viewBox="0 0 541.71 607.38">
  <defs>
    <style>
      .cls-1 {
        fill: #fff;
      }

      .cls-2 {
        fill: none;
        stroke: #fff;
        stroke-linecap: round;
        stroke-linejoin: round;
        stroke-width: 31.77px;
      }
    </style>
  </defs>
  <path class="cls-2" d="M109.66,202.82l-78.12,63.31V58.7c0-22.5,18.24-40.75,40.75-40.75h399.76c22.5,0,40.75,18.24,40.75,40.75v93.99"/>
  <path class="cls-2" d="M434.69,312.11l78.12-63.31v207.42c0,22.5-18.24,40.75-40.75,40.75H72.3c-22.5,0-40.75-18.24-40.75-40.75v-93.99"/>
  <path class="cls-1" d="M182.84,392.93c1.21-33.99,1.62-72.03,1.62-108.05s-.4-70.82-.4-97.52c0-13.35,0-24.68.4-33.59,1.21-44.51,42.49-44.92,71.22-44.92,7.69,0,14.97.4,21.04.81,57.06,4.05,84.98,44.51,84.98,84.98s-26.71,80.12-79.31,86.19c-9.31,1.22-18.61,1.62-27.52,1.62-14.57,0-28.33-1.21-40.06-4.05-1.62-.4-2.43-.81-3.64-.81-2.02,0-2.43,1.62-2.43,6.07,0,27.52,1.21,67.18,1.21,97.52v10.93c0,9.31-6.47,13.35-13.35,13.35s-13.76-4.45-13.76-12.14v-.4ZM336.21,193.84c0-29.54-19.83-59.08-62.32-61.51-5.26-.4-13.76-.4-21.85-.4-23.07,0-40.87,1.62-42.89,26.3,0,2.02-.4,4.86-.4,75.27v12.95c0,7.69,6.07,12.95,44.11,12.95,8.5,0,17.4-.41,25.09-1.21,38.04-4.05,58.27-34.4,58.27-64.34Z"/>
</svg>