<?xml version="1.0" encoding="UTF-8"?>
<svg id="_レイヤー_10" data-name="レイヤー_10" xmlns="http://www.w3.org/2000/svg" viewBox="0 0 541.71 607.38">
  <defs>
    <style>
      .cls-1 {
        fill: none;
        stroke: #ccc;
        stroke-miterlimit: 10;
        stroke-width: 13.76px;
      }

      .cls-2 {
        fill: #ccc;
      }
    </style>
  </defs>
  <path class="cls-2" d="M405.84,211.52l58.48,83.44,35.24,57.96-30.65,65.74c19.57,2.28,28.82,6.85,37.44-13.56,7.03-16.65,20.11-66.98,13.23-88.28-3.2-9.9-19.43-19.51-32.12-27.76-53.77-34.96-81.61-77.55-81.61-77.55Z"/>
  <path class="cls-2" d="M376.01,176.44s-14.01-3.67-29.29,0c-16.1,3.86-33.96,12.54-35.5,17.42-3.59,11.43,36.67,84.9,47.43,89.95,4.44,2.08,26.14,1.97,43.27-5.71,15-6.72,26.35-10.45,38.73-2.89,25.63,15.66-64.65-98.77-64.65-98.77ZM366.68,271.48c-15.34-13.14-43.46-64.01-39.94-73.89,2.83-7.96,39.32-14.51,47.89-10.54,20.01,9.27,44.28,54.8,62.73,76.32-12.89-15-63.5,14.26-70.68,8.11Z"/>
  <path class="cls-2" d="M134.11,223.98c-17.57,25.91-33.12,39.26-64.53,52.43-36.95,15.5-51.55,21.88-47.37,53.61,1.45,11.03.81,64.59,22.26,81.97,11.74,9.52,21.97,6.88,46.87,6.3v-13.91c-16.68-.54-32.36,2.45-33.54-26.24-1.99-48.7,5.42-70.99,32-91.63,25.96-20.16,91.75-63.05,91.75-69.2s.59-8.78-6.15-7.32c-6.74,1.46-27.68,11.53-31.78,9.77-4.1-1.76-9.49,4.21-9.49,4.21Z"/>
  <path class="cls-2" d="M290.56,300.75s2.93,90.17-49.13,104.37l91.53-.22c-38.88.22-32-5.23-32.22-31.51-.34-40.47,33.61-49.8,71.1-47.46,0,0,6.59-3.95,7.03-7.17.44-3.22-.59-6.59-6.3-6.59s-59.9.59-65.17.44c-5.27-.15-10.69-4.83-16.84-11.86Z"/>
  <path class="cls-2" d="M127.21,340.3c4.69,8.78,10.54,5.86,21.67,5.56,11.13-.29,27.24-2.34,31.05-6.73,3.81-4.39,8.2-21.66,7.32-26.93-.88-5.27-6.74-12.95-12.01-11.45-5.27,1.5-12.48,12.96-17.96,14.99-5.48,2.03-27.44,9.35-30.08,17.54-2.64,8.2,0,7.03,0,7.03Z"/>
  <path class="cls-2" d="M215.61,80.38s-7.62,2.93-7.03,9.95c.59,7.03,13.77,10.25,13.77,16.1s-5.27,9.08-19.33,5.56c-14.06-3.51-14.82-5.83-14.35-9.37,2.05-15.52,26.95-22.25,26.95-22.25Z"/>
  <path class="cls-2" d="M318.88,80.38s7.62,2.93,7.03,9.95c-.59,7.03-13.77,10.25-13.77,16.1,0,5.86,5.27,9.08,19.33,5.56,14.06-3.51,14.82-5.83,14.35-9.37-2.05-15.52-26.95-22.25-26.95-22.25Z"/>
  <path class="cls-1" d="M183.88,101.05s-15.57,71.4-44.93,128.05c-26.07,50.29-153.57,90.97-73.83,182.89,0,0,347.8-6.59,405.79,0,0,0,29.44-27.23,25.92-59.72-3.51-32.5-50.96-75.53-80.84-115.05-29.87-39.52-51.84-76.85-66.78-136.13,0,0-12.72-37.76-81.26-37.76s-84.08,37.73-84.08,37.73Z"/>
  <path class="cls-1" d="M183.88,101.05c4.69-19.11,20.65-50.71,82.67-50.71s77.7,30.04,82.67,50.75"/>
</svg>